<svg width="539" height="379" viewBox="0 0 539 379" fill="none" xmlns="http://www.w3.org/2000/svg">
<g clip-path="url(#clip0_103_2)">
<path d="M94.1555 0C105.753 0.000226255 114.675 5.99874 121.076 13.4746C127.469 20.9404 131.423 29.9562 133.121 36.2393C144.788 75.295 135.642 119.855 129.608 137.304C124.363 156.628 108.034 190.479 100.544 204.959L99.8469 206.306L98.884 205.136C95.9441 201.566 93.7735 195.881 92.1574 190.334C90.5319 184.755 89.4228 179.149 88.677 175.668L88.674 175.655L88.6721 175.643C87.9178 171.619 87.7671 169.243 87.9748 167.589C88.1893 165.88 88.7957 164.963 89.2649 164.045L89.2727 164.029L89.2815 164.015L91.7863 159.506L91.7902 159.498C95.3198 153.419 99.0418 142.49 102.269 131.2C105.486 119.944 108.181 108.442 109.677 101.295L109.687 101.247L109.701 101.201C111.03 96.9643 111.711 90.1697 111.703 82.3135C111.695 74.482 111.003 65.6848 109.631 57.4873C108.257 49.2753 106.211 41.7315 103.53 36.3682C100.802 30.9098 97.6621 28.1628 94.2522 28.4951C89.5652 28.9526 85.991 31.973 83.2229 36.7227C80.448 41.484 78.5675 47.8539 77.2629 54.6875C74.6452 68.3993 74.416 83.4532 73.6496 90.6064C72.1646 104.468 74.1448 130.353 78.6457 162.36C82.219 187.769 94.7048 216.019 100.521 226.996C103.975 232.35 107.881 234.312 111.283 234.706C114.745 235.106 117.83 233.899 119.584 232.679L119.596 232.672L119.607 232.664C122.623 230.684 125.881 226.795 129.183 221.65C132.468 216.533 135.733 210.277 138.798 203.679C144.927 190.483 150.213 175.998 153.203 166.694L153.204 166.69C164.414 132.262 193.991 125.518 208.082 126.453L208.741 126.504L208.778 126.507L208.813 126.513C234.412 130.576 248.258 145.772 255.11 163.069C261.505 179.216 261.815 197.191 260.03 209.711C261.99 208.019 264.354 205.436 266.976 202.198C270.49 197.859 274.391 192.447 278.304 186.688C286.129 175.171 293.965 162.317 298.79 153.998C315.605 124.775 342.097 123.956 353.904 127.38L354.454 127.546L354.474 127.552C377.401 135.262 389.565 150.763 395.421 166.985C400.799 181.884 400.857 197.385 399.118 208.058C404.674 203.362 410.799 196.059 416.376 188.518C422.591 180.114 428.062 171.507 431.224 166.109C432.9 159.553 436.978 153.222 441.338 147.997C445.74 142.722 450.497 138.494 453.556 136.2L453.574 136.186L453.594 136.173C469.429 125.413 483.814 124.398 495.371 127.586C506.843 130.751 515.449 138.035 519.905 143.837C528.103 152.234 542.794 177.155 537.142 210.666C533.617 231.56 526.42 245.162 517.402 253.604C508.375 262.055 497.622 265.245 487.18 265.5C472.275 265.863 460.572 260.302 455.164 256.52L455.655 363.995V364.036L455.653 364.077C454.804 375.108 446.404 378.634 442.242 378.996L442.198 379H442.155C436.043 379 432.193 376.519 429.928 373.329C427.713 370.209 427.074 366.499 427.155 364V220.884C423.932 225.334 418.959 230.196 413.835 234.631C407.544 240.076 400.912 244.975 396.718 247.827L396.713 247.83C368.595 266.709 346.644 267.233 338.907 264.969C302.521 255.67 291.897 228.731 291.163 216.145C291.157 216.113 291.148 216.084 291.142 216.055C287.653 221.037 282.144 226.764 276.665 231.916C271 237.243 265.31 242.006 261.787 244.774C256.289 249.507 246.452 256.134 234.707 260.731C222.952 265.332 209.182 267.941 195.903 264.468C171.499 258.085 160.186 241.351 156.846 231.898L151.506 240.526L151.505 240.525C148.944 244.707 143.915 250.926 137.085 256.109C130.252 261.295 121.544 265.5 111.655 265.5C101.717 265.5 93.0721 260.584 86.3508 254.557C80.1869 249.029 75.5611 242.493 72.9338 237.711C69.2055 241.668 60.7289 249.887 49.7639 258.294C37.6632 267.571 24.5629 273.372 19.0754 275.908L19.0412 275.923L19.007 275.937C17.7143 276.421 15.1314 277.505 12.1477 277.294C9.07725 277.077 5.72184 275.511 2.81759 271.045C0.536193 267.536 -0.533163 264.53 0.259974 261.494C1.03463 258.529 3.5246 255.812 7.53829 252.671C10.4198 250.416 14.542 247.287 19.2668 243.685C23.9954 240.08 29.3356 235.995 34.6633 231.817C45.0598 223.665 55.3451 215.207 60.9758 209.291C55.4584 196.484 51.6917 176.877 49.2141 157.567C46.6926 137.916 45.4896 118.455 45.1555 106.528C43.552 71.1748 52.1828 38.9103 56.7229 27.1396C59.2638 20.5524 62.8368 13.7562 68.6945 8.6084C74.5773 3.43866 82.6857 5.43895e-05 94.1555 0ZM205.155 152.957C197.57 152.957 190.594 157.41 185.473 164.827C180.354 172.241 177.156 182.536 177.155 193.957C177.156 205.378 180.353 215.674 185.472 223.087C190.593 230.504 197.57 234.957 205.155 234.957L205.864 234.944C213.175 234.676 219.876 230.273 224.838 223.087C229.957 215.674 233.155 205.378 233.155 193.957C233.155 182.536 229.957 172.241 224.838 164.827C219.876 157.641 213.175 153.238 205.864 152.97L205.155 152.957ZM344.155 152.957C336.569 152.957 329.593 157.41 324.472 164.827C319.353 172.241 316.155 182.536 316.155 193.957C316.155 205.378 319.353 215.674 324.472 223.087C329.593 230.504 336.569 234.957 344.155 234.957C351.74 234.957 358.716 230.504 363.838 223.087C368.957 215.674 372.154 205.378 372.155 193.957C372.154 182.536 368.956 172.241 363.837 164.827C358.716 157.41 351.74 152.957 344.155 152.957ZM483.155 152.957C475.569 152.957 468.593 157.41 463.472 164.827C458.353 172.241 455.155 182.536 455.155 193.957C455.155 205.378 458.352 215.674 463.471 223.087C468.592 230.504 475.569 234.957 483.155 234.957C490.74 234.957 497.717 230.504 502.838 223.087C507.957 215.674 511.155 205.378 511.155 193.957C511.154 182.536 507.957 172.24 502.838 164.827C497.717 157.41 490.74 152.957 483.155 152.957Z" fill="url(#paint0_linear_103_2)"/>
</g>
<defs>
<linearGradient id="paint0_linear_103_2" x1="431.5" y1="423.5" x2="245" y2="-19.5" gradientUnits="userSpaceOnUse">
<stop offset="0.0750769" stop-color="#405DE6"/>
<stop offset="0.160282" stop-color="#5851DB"/>
<stop offset="0.326639" stop-color="#833AB4"/>
<stop offset="0.43016" stop-color="#DC2E90"/>
<stop offset="0.560994" stop-color="#E1306C"/>
<stop offset="0.716757" stop-color="#FD1D1D"/>
<stop offset="0.844307" stop-color="#F77737"/>
<stop offset="0.988598" stop-color="#F79437"/>
</linearGradient>
<clipPath id="clip0_103_2">
<rect width="538.404" height="379" fill="white"/>
</clipPath>
</defs>
</svg>
